
<svg width="64" height="64" xmlns="http://www.w3.org/2000/svg" xmlns:xlink="http://www.w3.org/1999/xlink" viewBox="0 0 64 64">
    <defs>
        <style>
            .rays {
                transform: scale(0.3);
            }
        </style>
        <clipPath id="b"><path fill="none" d="M0 7.5h64v32H0z"/></clipPath>
        <linearGradient id="c" x1="26.75" x2="37.25" y1="29.91" y2="48.09" gradientUnits="userSpaceOnUse"><stop offset="0" stop-color="#fbbf24"/><stop offset=".45" stop-color="#fbbf24"/><stop offset="1" stop-color="#f59e0b"/></linearGradient>
        <linearGradient id="a" x1="15.5" x2="48.5" y1="44" y2="44" gradientUnits="userSpaceOnUse"><stop offset="0" stop-color="#d4d7dd"/><stop offset=".45" stop-color="#d4d7dd"/><stop offset="1" stop-color="#bec1c6"/></linearGradient>
        <linearGradient id="d" y1="51" y2="51" xlink:href="#a"/>
        <radialGradient id="sun" cx="0" cy="0" r="1" gradientUnits="userSpaceOnUse" gradientTransform="translate(40 32) rotate(20) scale(13)"><stop stop-color="#FFD336"/><stop offset="1" stop-color="#FF9900"/></radialGradient>
    </defs>

    <g transform="translate(0,-4)">
    <g stroke-miterlimit="10" clip-path="url(#b)">
        <circle cx="32" cy="39" r="10.5" fill="url(#sun)" />
        <g transform="translate(32,37.9) scale(1.3)">
        <g class="am-weather-sun am-weather-sun-shiny am-weather-easing-ease-in-out">
            <g>
                <line fill="none" stroke="orange" stroke-linecap="round" stroke-width="2" transform="translate(0,10.5)" x1="0" x2="0" y1="0" y2="2" />
            </g>
            <g transform="rotate(45)">
                <line fill="none" stroke="orange" stroke-linecap="round" stroke-width="2" transform="translate(0,10.5)" x1="0" x2="0" y1="0" y2="2" />
            </g>
            <g transform="rotate(90)">
                <line fill="none" stroke="orange" stroke-linecap="round" stroke-width="2" transform="translate(0,10.5)" x1="0" x2="0" y1="0" y2="2" />
            </g>
            <g transform="rotate(135)">
                <line fill="none" stroke="orange" stroke-linecap="round" stroke-width="2" transform="translate(0,10.5)" x1="0" x2="0" y1="0" y2="2" />
            </g>
            <g transform="rotate(180)">
                <line fill="none" stroke="orange" stroke-linecap="round" stroke-width="2" transform="translate(0,10.5)" x1="0" x2="0" y1="0" y2="2" />
            </g>
            <g transform="rotate(225)">
                <line fill="none" stroke="orange" stroke-linecap="round" stroke-width="2" transform="translate(0,10.5)" x1="0" x2="0" y1="0" y2="2" />
            </g>
            <g transform="rotate(270)">
                <line fill="none" stroke="orange" stroke-linecap="round" stroke-width="2" transform="translate(0,10.5)" x1="0" x2="0" y1="0" y2="2" />
            </g>
            <g transform="rotate(315)">
                <line fill="none" stroke="orange" stroke-linecap="round" stroke-width="2" transform="translate(0,10.5)" x1="0" x2="0" y1="0" y2="2" />
            </g>
        </g>
        </g>
<!--        <path fill="none" stroke="#fbbf24" stroke-linecap="round" stroke-width="3" d="M32 22.71V16.5m0 45v-6.21m11.52-27.81 4.39-4.39M16.09 54.91l4.39-4.39m0-23-4.39-4.39m31.82 31.78-4.39-4.39M15.71 39H9.5m45 0h-6.21">-->
<!--            <animateTransform attributeName="transform" dur="45s" repeatCount="indefinite" type="rotate" values="0 32 39; 360 32 39"/></path>-->
    </g>
        <path fill="none" stroke="url(#a)" stroke-linecap="round" stroke-miterlimit="10" stroke-width="3" d="M17 44h30">
            <animateTransform attributeName="transform" begin="0s" dur="5s" repeatCount="indefinite" type="translate" values="-4 0; 4 0; -4 0"/>
        </path>
        <path fill="none" stroke="url(#d)" stroke-linecap="round" stroke-miterlimit="10" stroke-width="3" d="M17 51h30">
            <animateTransform attributeName="transform" begin="-4s" dur="5s" repeatCount="indefinite" type="translate" values="-4 0; 4 0; -4 0"/>
        </path>
    </g>
</svg>